<?xml version="1.0" standalone="no"?>
<!DOCTYPE svg PUBLIC "-//W3C//DTD SVG 20010904//EN"
 "http://www.w3.org/TR/2001/REC-SVG-20010904/DTD/svg10.dtd">
<svg version="1.0" xmlns="http://www.w3.org/2000/svg"
 width="568.000000pt" height="568.000000pt" viewBox="0 0 568.000000 568.000000"
 preserveAspectRatio="xMidYMid meet">
<metadata>
Created by potrace 1.14, written by Peter Selinger 2001-2017
</metadata>
<g transform="translate(0.000000,568.000000) scale(0.100000,-0.100000)"
fill="#000000" stroke="none">
<path d="M3119 5607 c-19 -17 -48 -41 -64 -52 -25 -19 -27 -23 -15 -44 8 -17
10 -46 6 -99 -4 -41 -8 -78 -10 -81 -2 -3 -6 -29 -10 -58 -3 -28 -8 -57 -10
-65 -3 -7 -8 -31 -11 -53 -3 -22 -9 -41 -14 -43 -4 -1 -6 -14 -3 -27 2 -14 1
-33 -3 -42 -9 -20 -15 4 -34 127 -6 36 -12 74 -15 85 -2 11 -9 54 -16 95 -27
165 -46 156 -74 -35 -4 -23 -9 -52 -12 -65 -3 -14 -7 -38 -9 -55 -5 -47 -17
-85 -24 -81 -3 2 -5 -14 -3 -37 10 -107 -34 46 -53 188 -3 17 -8 44 -11 60
-13 57 -11 90 8 118 l19 27 -71 0 c-74 0 -76 -2 -43 -41 8 -9 16 -28 18 -43 3
-14 9 -52 15 -84 5 -31 12 -73 15 -92 5 -35 11 -62 21 -110 3 -14 7 -38 9 -55
3 -16 9 -52 14 -80 8 -39 6 -55 -5 -72 -8 -13 -13 -26 -12 -29 3 -6 71 -8 115
-5 14 1 9 40 -8 55 -8 7 -7 3 1 -14 11 -23 11 -24 -4 -10 -22 22 -22 68 3 192
14 68 19 102 27 162 5 36 9 44 16 32 5 -9 8 -24 6 -34 -1 -9 0 -21 4 -27 3 -5
9 -28 12 -50 4 -22 14 -78 22 -125 9 -47 18 -96 21 -109 2 -15 -4 -32 -18 -47
l-22 -24 29 -1 c16 -1 49 -2 73 -3 25 0 46 -6 48 -13 3 -9 -13 -12 -61 -10
-36 1 -66 -1 -66 -5 0 -5 34 -8 75 -8 41 0 75 3 75 8 -1 11 -40 58 -40 47 0
-5 -9 4 -19 22 -19 30 -20 57 -6 123 11 52 15 76 21 119 3 25 7 47 9 51 2 3 6
26 9 50 16 118 53 261 87 338 15 34 27 62 26 62 -1 0 -18 -15 -38 -33z"/>
<path d="M3151 5567 c-13 -21 -12 -21 5 -5 10 10 16 20 13 22 -3 3 -11 -5 -18
-17z"/>
<path d="M3133 5523 c-3 -10 -8 -22 -11 -27 -3 -5 0 -6 5 -3 11 7 25 47 17 47
-3 0 -7 -8 -11 -17z"/>
<path d="M1859 5463 c-46 -28 -63 -70 -64 -153 0 -111 24 -142 152 -190 58
-22 78 -54 78 -126 0 -70 -18 -100 -65 -107 -35 -6 -75 7 -76 24 -2 27 -16 59
-26 59 -6 0 -3 -11 6 -25 18 -27 20 -35 8 -35 -10 0 -37 54 -50 100 -5 19 -10
27 -11 17 -1 -9 -12 -49 -25 -87 -21 -60 -22 -69 -8 -61 23 12 24 12 84 -10
103 -37 167 -15 201 69 13 33 23 112 17 135 -5 17 -8 28 -9 41 -2 31 -58 80
-127 111 -40 18 -77 42 -83 53 -37 69 -8 157 54 167 39 6 94 -66 95 -123 1
-14 2 -15 9 -2 5 8 11 29 14 45 3 17 10 43 16 58 14 36 14 36 -7 30 -10 -2
-38 3 -62 11 -57 20 -88 20 -121 -1z"/>
<path d="M3109 5454 c-5 -15 -8 -29 -5 -31 2 -2 8 10 14 26 13 38 5 41 -9 5z"/>
<path d="M3354 5467 c-88 -28 -136 -152 -129 -332 4 -113 32 -192 86 -246 31
-31 46 -39 76 -39 66 0 131 73 151 170 9 45 9 234 -1 283 -23 120 -101 190
-183 164z m53 -37 c51 -18 73 -88 77 -253 5 -198 -43 -308 -123 -282 -47 15
-78 127 -75 275 2 128 18 202 54 240 32 34 28 33 67 20z"/>
<path d="M3351 5382 c-11 -16 -22 -41 -25 -58 -4 -16 -3 -22 0 -14 34 81 35
82 76 78 34 -3 37 -2 22 9 -28 20 -51 15 -73 -15z"/>
<path d="M3309 5233 c-2 -83 1 -206 5 -210 2 -2 4 52 4 121 0 68 3 129 7 135
3 6 1 11 -4 11 -6 0 -12 -25 -12 -57z"/>
<path d="M3322 4979 c6 -16 12 -29 13 -27 6 6 -8 58 -16 58 -4 0 -3 -14 3 -31z"/>
<path d="M3830 5469 c-48 -10 -95 -65 -117 -136 -25 -82 -25 -257 1 -336 40
-122 130 -177 205 -125 70 47 99 138 96 298 -4 210 -74 323 -185 299z m94 -82
c38 -73 42 -340 6 -431 -15 -38 -49 -66 -81 -66 -23 0 -30 4 -26 14 4 11 1 13
-10 9 -12 -5 -14 -1 -8 18 5 18 4 20 -4 9 -8 -12 -12 -9 -22 15 -17 44 -23 98
-21 205 1 132 6 172 28 216 35 71 104 76 138 11z"/>
<path d="M3826 5389 c-14 -11 -26 -26 -25 -32 0 -7 7 -2 16 11 11 15 26 22 52
23 29 0 32 2 16 9 -29 12 -30 12 -59 -11z"/>
<path d="M3786 5324 c-4 -9 -4 -19 -1 -22 2 -3 7 3 11 12 4 9 4 19 1 22 -2 3
-7 -3 -11 -12z"/>
<path d="M3779 5203 c0 -5 -3 -21 -5 -38 -3 -16 -2 -26 2 -22 8 8 15 67 8 67
-2 0 -4 -3 -5 -7z"/>
<path d="M3774 5101 c2 -42 11 -46 12 -5 0 19 -3 34 -7 34 -3 0 -6 -13 -5 -29z"/>
<path d="M3781 5024 c0 -16 4 -38 9 -49 6 -13 7 -5 3 25 -7 53 -13 66 -12 24z"/>
<path d="M4699 5469 c-43 -16 -73 -83 -73 -161 0 -103 28 -142 119 -172 81
-27 112 -62 116 -133 4 -54 -17 -99 -51 -113 -60 -25 -125 14 -150 90 l-14 41
-23 -68 c-12 -37 -23 -69 -23 -70 0 -1 11 0 24 3 13 2 44 -4 68 -14 23 -10 59
-19 78 -20 77 -5 139 72 140 173 0 109 -33 156 -140 199 -61 25 -90 58 -95
107 -7 79 55 139 108 104 27 -17 57 -71 57 -101 0 -28 10 -10 25 42 7 27 16
57 20 66 5 13 2 15 -12 12 -10 -3 -38 2 -62 11 -49 17 -74 18 -112 4z"/>
<path d="M780 5464 c0 -3 8 -16 18 -29 14 -18 17 -39 16 -116 -2 -120 -2 -121
-13 -114 -9 5 -41 -31 -41 -48 0 -4 9 -3 21 4 15 7 24 8 32 0 7 -7 2 -14 -16
-22 -15 -7 -27 -17 -27 -22 0 -5 7 -4 15 3 9 7 19 10 22 6 4 -4 8 -51 9 -104
1 -80 -2 -102 -17 -124 -11 -14 -19 -28 -19 -30 0 -2 74 -4 163 -3 l164 0 -19
33 c-10 18 -18 39 -18 46 0 8 -6 26 -14 41 l-14 27 -7 -30 c-9 -42 -47 -74
-94 -79 l-41 -5 0 116 c0 113 1 116 23 117 36 2 50 -2 62 -17 7 -10 10 11 11
77 l1 92 -21 -37 c-16 -27 -27 -36 -48 -36 l-28 0 0 90 0 90 44 0 c25 0 48 -5
51 -10 4 -6 12 -7 18 -4 7 4 9 4 5 -1 -10 -10 11 -37 23 -29 5 3 9 12 9 20 0
8 9 34 20 56 11 23 20 43 20 45 0 2 -70 3 -155 3 -85 0 -155 -3 -155 -6z"/>
<path d="M1386 5453 c4 -10 8 -30 9 -46 2 -31 -21 -133 -36 -160 -5 -10 -7
-22 -4 -27 4 -6 1 -10 -5 -10 -6 0 -13 7 -16 15 -10 24 -20 18 -31 -19 -10
-31 -8 -35 13 -47 15 -7 22 -19 20 -28 -3 -9 -12 -47 -22 -86 -18 -75 -48
-140 -78 -167 -22 -20 -29 -18 71 -21 56 -2 60 1 42 36 -14 25 -19 126 -7 133
4 3 8 16 8 29 0 32 10 56 21 50 4 -3 4 -17 -1 -30 -6 -15 -6 -25 0 -25 4 0 10
8 12 18 3 10 12 -4 24 -37 l21 -53 19 33 c11 19 23 42 27 52 3 9 10 17 15 17
4 0 8 -8 9 -17 1 -10 9 -48 19 -85 17 -65 17 -68 -1 -88 -10 -11 -16 -23 -13
-25 9 -9 138 -11 138 -2 0 5 5 5 12 1 7 -4 8 -3 4 5 -4 6 -12 8 -18 5 -7 -5
-9 -2 -6 7 3 8 -3 32 -13 54 -16 34 -17 35 -12 10 3 -16 10 -36 16 -42 6 -9 6
-13 -2 -13 -6 0 -15 10 -20 23 -18 45 -58 226 -51 236 3 6 20 11 37 13 23 1
29 6 25 17 -5 13 -6 13 -11 0 -2 -7 -9 5 -15 29 l-11 43 -22 -20 -22 -20 -9
32 c-6 17 -13 46 -17 62 -4 17 -9 39 -11 50 -3 11 -7 30 -10 43 -2 12 3 33 12
47 l16 25 -67 0 c-60 0 -66 -2 -59 -17z m60 -176 c1 -7 9 -39 17 -73 13 -55
13 -64 -1 -87 l-16 -26 -22 43 c-22 43 -22 46 -7 105 14 57 24 69 29 38z"/>
<path d="M2186 5448 c4 -13 13 -42 19 -65 10 -41 29 -73 25 -43 -8 53 23 92
70 88 35 -3 41 -28 7 -28 -32 0 -55 -20 -62 -55 -7 -30 -7 -30 12 5 13 25 26
36 46 38 l27 3 0 -239 c0 -227 -1 -241 -21 -266 -11 -14 -17 -26 -12 -27 4 -1
37 -2 72 -2 37 -1 66 -7 68 -13 2 -6 -7 -11 -19 -11 -80 -1 -121 -4 -116 -8 5
-5 74 -8 130 -6 22 1 26 5 21 19 -4 9 -11 20 -17 24 -12 8 -18 34 -17 76 1 17
-3 32 -7 32 -10 0 -8 -62 3 -81 8 -12 6 -12 -8 0 -15 12 -17 42 -17 277 l0
264 30 0 c37 0 70 -34 70 -72 0 -15 5 -28 11 -28 5 0 8 3 5 8 -2 4 4 32 15 62
10 30 19 58 19 62 0 4 -81 8 -181 8 l-180 0 7 -22z"/>
<path d="M4176 5454 c4 -10 11 -24 15 -30 5 -6 9 -125 9 -264 0 -247 -1 -255
-22 -277 l-21 -23 34 -1 c82 -3 144 3 174 16 73 30 114 147 109 311 -3 104
-16 162 -47 209 -34 52 -69 67 -169 73 -84 5 -88 4 -82 -14z m181 -56 c40 -37
53 -106 50 -252 -2 -116 -5 -137 -27 -181 -28 -56 -71 -85 -96 -65 -11 10 -14
10 -14 0 0 -8 -3 -10 -7 -6 -8 7 -12 515 -5 530 8 15 74 -2 99 -26z"/>
<path d="M4277 5393 c-3 -5 12 -8 33 -8 21 0 36 3 33 8 -2 4 -17 7 -33 7 -16
0 -31 -3 -33 -7z"/>
<path d="M4271 5324 c0 -11 3 -14 6 -6 3 7 2 16 -1 19 -3 4 -6 -2 -5 -13z"/>
<path d="M4271 5284 c0 -11 3 -14 6 -6 3 7 2 16 -1 19 -3 4 -6 -2 -5 -13z"/>
<path d="M4271 5244 c0 -11 3 -14 6 -6 3 7 2 16 -1 19 -3 4 -6 -2 -5 -13z"/>
<path d="M4271 5174 c0 -11 3 -14 6 -6 3 7 2 16 -1 19 -3 4 -6 -2 -5 -13z"/>
<path d="M4272 5120 c0 -19 2 -27 5 -17 2 9 2 25 0 35 -3 9 -5 1 -5 -18z"/>
<path d="M1512 5435 c-14 -30 -16 -72 -3 -79 4 -3 6 6 3 20 -2 14 1 36 8 50 8
13 11 26 8 29 -2 3 -10 -6 -16 -20z"/>
<path d="M1090 5425 c-7 -9 -8 -15 -2 -15 5 0 12 7 16 15 3 8 4 15 2 15 -2 0
-9 -7 -16 -15z"/>
<path d="M2066 5425 c-3 -8 -1 -15 4 -15 6 0 10 7 10 15 0 8 -2 15 -4 15 -2 0
-6 -7 -10 -15z"/>
<path d="M2542 5415 c-7 -14 -12 -34 -11 -43 0 -9 7 1 15 22 16 45 13 59 -4
21z"/>
<path d="M2759 5423 c-13 -16 -12 -17 4 -4 9 7 17 15 17 17 0 8 -8 3 -21 -13z"/>
<path d="M1889 5400 l-24 -21 30 14 c34 17 67 9 84 -20 6 -10 10 -13 10 -8 0
19 -25 44 -50 50 -18 4 -32 0 -50 -15z"/>
<path d="M4732 5413 c-7 -2 -17 -14 -23 -26 -11 -22 -11 -22 10 1 26 26 39 27
69 6 12 -8 22 -11 22 -6 0 5 -11 14 -25 20 -28 13 -33 13 -53 5z"/>
<path d="M3087 5383 c-7 -39 -1 -40 11 -4 6 17 7 31 3 31 -5 0 -11 -12 -14
-27z"/>
<path d="M2046 5354 c-9 -26 -14 -49 -12 -51 2 -2 11 17 20 43 9 26 14 49 12
51 -2 2 -11 -17 -20 -43z"/>
<path d="M2406 5392 c-2 -4 10 -8 29 -8 19 0 31 4 29 8 -3 4 -16 8 -29 8 -13
0 -26 -4 -29 -8z"/>
<path d="M3530 5385 c0 -5 5 -17 10 -25 5 -8 10 -10 10 -5 0 6 -5 17 -10 25
-5 8 -10 11 -10 5z"/>
<path d="M1860 5360 c0 -5 5 -10 10 -10 6 0 10 5 10 10 0 6 -4 10 -10 10 -5 0
-10 -4 -10 -10z"/>
<path d="M1055 5340 c-3 -5 -1 -10 4 -10 6 0 11 5 11 10 0 6 -2 10 -4 10 -3 0
-8 -4 -11 -10z"/>
<path d="M2521 5343 c-1 -6 -4 -20 -7 -30 -5 -17 -5 -17 6 0 6 10 9 23 6 30
-3 9 -5 9 -5 0z"/>
<path d="M4866 5335 c-3 -9 -6 -22 -5 -28 0 -7 5 -1 10 12 5 13 8 26 5 28 -2
2 -6 -3 -10 -12z"/>
<path d="M1861 5330 c0 -8 4 -22 9 -30 12 -18 12 -2 0 25 -6 13 -9 15 -9 5z"/>
<path d="M2409 5333 c-4 -24 -3 -170 1 -166 5 5 7 173 3 173 -2 0 -4 -3 -4 -7z"/>
<path d="M3076 5318 c-3 -13 -5 -32 -5 -43 1 -11 5 -2 10 19 10 42 6 62 -5 24z"/>
<path d="M3551 5324 c0 -11 3 -14 6 -6 3 7 2 16 -1 19 -3 4 -6 -2 -5 -13z"/>
<path d="M4022 5310 c0 -14 2 -19 5 -12 2 6 2 18 0 25 -3 6 -5 1 -5 -13z"/>
<path d="M4477 5309 c4 -13 8 -18 11 -10 2 7 -1 18 -6 23 -8 8 -9 4 -5 -13z"/>
<path d="M3560 5281 c0 -11 4 -22 9 -25 4 -3 6 6 3 19 -5 30 -12 33 -12 6z"/>
<path d="M1528 5263 c5 -21 7 -23 10 -9 2 10 0 22 -6 28 -6 6 -7 0 -4 -19z"/>
<path d="M1330 5261 c0 -5 5 -13 10 -16 6 -3 10 -2 10 4 0 5 -4 13 -10 16 -5
3 -10 2 -10 -4z"/>
<path d="M4492 5240 c0 -19 2 -27 5 -17 2 9 2 25 0 35 -3 9 -5 1 -5 -18z"/>
<path d="M3061 5234 c0 -11 3 -14 6 -6 3 7 2 16 -1 19 -3 4 -6 -2 -5 -13z"/>
<path d="M4030 5241 c0 -6 4 -13 10 -16 6 -3 7 1 4 9 -7 18 -14 21 -14 7z"/>
<path d="M3569 5189 c1 -28 6 -48 9 -45 8 8 4 78 -5 87 -5 5 -6 -15 -4 -42z"/>
<path d="M1011 5214 c0 -11 3 -14 6 -6 3 7 2 16 -1 19 -3 4 -6 -2 -5 -13z"/>
<path d="M3054 5196 c-3 -8 -4 -23 -2 -33 3 -11 6 -6 9 15 6 34 2 42 -7 18z"/>
<path d="M4037 5197 c-3 -8 -1 -20 4 -28 6 -10 9 -7 9 14 0 29 -5 35 -13 14z"/>
<path d="M1012 5170 c0 -14 2 -19 5 -12 2 6 2 18 0 25 -3 6 -5 1 -5 -13z"/>
<path d="M2786 5167 c3 -10 9 -15 12 -12 3 3 0 11 -7 18 -10 9 -11 8 -5 -6z"/>
<path d="M4499 5178 c-5 -9 -5 -48 -1 -43 6 6 11 45 5 45 -2 0 -4 -1 -4 -2z"/>
<path d="M1824 5148 c12 -18 41 -36 89 -54 40 -15 77 -35 84 -43 8 -11 12 -12
13 -3 0 16 -54 49 -102 62 -20 6 -52 23 -69 38 l-33 27 18 -27z"/>
<path d="M4656 5145 c4 -8 11 -15 16 -15 6 0 5 6 -2 15 -7 8 -14 15 -16 15 -2
0 -1 -7 2 -15z"/>
<path d="M1620 5141 c0 -6 -8 -8 -18 -6 -36 6 -45 -9 -28 -46 10 -22 14 -25
10 -9 -11 43 -10 45 19 42 19 -3 27 1 27 12 0 9 -2 16 -5 16 -3 0 -5 -4 -5 -9z"/>
<path d="M2404 5125 c0 -28 8 -24 13 5 2 11 -1 20 -5 20 -4 0 -8 -11 -8 -25z"/>
<path d="M2857 5130 c-3 -11 -1 -20 4 -20 5 0 9 9 9 20 0 11 -2 20 -4 20 -2 0
-6 -9 -9 -20z"/>
<path d="M4039 5128 c0 -13 -2 -31 -4 -41 -2 -9 0 -15 4 -13 8 5 14 76 6 76
-3 0 -5 -10 -6 -22z"/>
<path d="M1012 5120 c0 -14 2 -19 5 -12 2 6 2 18 0 25 -3 6 -5 1 -5 -13z"/>
<path d="M3572 5110 c0 -14 2 -19 5 -12 2 6 2 18 0 25 -3 6 -5 1 -5 -13z"/>
<path d="M4697 5119 c5 -5 34 -18 63 -29 29 -11 49 -16 44 -11 -5 5 -33 19
-63 30 -30 11 -50 16 -44 10z"/>
<path d="M2091 5094 c0 -11 3 -14 6 -6 3 7 2 16 -1 19 -3 4 -6 -2 -5 -13z"/>
<path d="M4491 5094 c0 -11 3 -14 6 -6 3 7 2 16 -1 19 -3 4 -6 -2 -5 -13z"/>
<path d="M2404 5065 c0 -28 8 -24 13 5 2 11 -1 20 -5 20 -4 0 -8 -11 -8 -25z"/>
<path d="M2102 5045 c0 -16 2 -22 5 -12 2 9 2 23 0 30 -3 6 -5 -1 -5 -18z"/>
<path d="M2842 5041 c-6 -17 -7 -31 -3 -31 8 0 22 52 16 58 -1 2 -7 -11 -13
-27z"/>
<path d="M4927 5063 c-3 -5 -1 -17 4 -28 6 -17 7 -16 6 8 -1 28 -3 32 -10 20z"/>
<path d="M4031 5044 c0 -11 3 -14 6 -6 3 7 2 16 -1 19 -3 4 -6 -2 -5 -13z"/>
<path d="M3562 5030 c0 -14 2 -19 5 -12 2 6 2 18 0 25 -3 6 -5 1 -5 -13z"/>
<path d="M4483 5023 c-3 -10 -8 -22 -11 -27 -3 -5 0 -6 5 -3 11 7 25 47 17 47
-3 0 -7 -8 -11 -17z"/>
<path d="M1587 5012 c3 -12 9 -25 14 -28 14 -8 11 10 -6 32 -13 18 -14 18 -8
-4z"/>
<path d="M2405 5006 c0 -13 3 -22 8 -19 4 2 7 13 7 24 0 10 -3 19 -7 19 -5 0
-8 -11 -8 -24z"/>
<path d="M1455 4990 c-9 -16 -13 -30 -11 -30 3 0 12 14 21 30 9 17 13 30 11
30 -3 0 -12 -13 -21 -30z"/>
<path d="M2092 5004 c3 -3 2 -21 -2 -40 -4 -19 -4 -34 1 -34 5 0 9 8 9 18 0 9
3 27 6 40 4 14 2 22 -7 22 -7 0 -10 -2 -7 -6z"/>
<path d="M4006 4956 c-31 -91 -95 -141 -162 -126 -40 9 -45 4 -8 -10 40 -16
98 4 131 45 27 33 70 131 61 140 -2 3 -12 -20 -22 -49z"/>
<path d="M3550 4989 c0 -31 -51 -115 -83 -137 -19 -12 -51 -23 -71 -24 -26 -1
-33 -4 -23 -10 31 -17 93 8 129 51 29 34 64 118 54 128 -3 3 -6 0 -6 -8z"/>
<path d="M1075 4980 c3 -5 8 -10 11 -10 2 0 4 5 4 10 0 6 -5 10 -11 10 -5 0
-7 -4 -4 -10z"/>
<path d="M4920 4969 c0 -12 -12 -43 -26 -70 -31 -57 -78 -84 -130 -76 -19 3
-34 2 -34 -2 0 -14 80 -12 109 4 17 8 42 35 56 59 30 52 48 106 34 106 -5 0
-9 -10 -9 -21z"/>
<path d="M2828 4955 c-3 -14 -1 -25 3 -25 5 0 9 11 9 25 0 14 -2 25 -4 25 -2
0 -6 -11 -8 -25z"/>
<path d="M4445 4915 c-38 -60 -80 -78 -184 -82 -107 -3 -119 -13 -15 -13 122
1 170 23 213 100 30 54 21 51 -14 -5z"/>
<path d="M1095 4930 c3 -5 8 -10 11 -10 2 0 4 5 4 10 0 6 -5 10 -11 10 -5 0
-7 -4 -4 -10z"/>
<path d="M3010 4925 c0 -5 5 -17 10 -25 5 -8 10 -10 10 -5 0 6 -5 17 -10 25
-5 8 -10 11 -10 5z"/>
<path d="M2057 4887 c-34 -64 -103 -79 -195 -44 -42 16 -57 18 -75 8 l-22 -12
24 5 c13 3 47 -4 75 -15 64 -24 112 -24 152 0 29 18 82 91 66 91 -4 0 -15 -15
-25 -33z"/>
<path d="M1116 4895 c4 -11 7 -29 8 -40 1 -19 -5 -20 -161 -20 -90 0 -163 -3
-163 -7 0 -5 74 -8 164 -8 155 0 165 1 171 20 3 10 -1 32 -10 47 -9 15 -13 19
-9 8z"/>
<path d="M1364 4878 c9 -21 16 -40 16 -43 0 -3 -24 -4 -53 -2 -29 2 -62 0 -73
-4 -11 -4 14 -8 63 -8 l82 -1 -15 38 c-9 20 -20 42 -25 47 -6 6 -3 -7 5 -27z"/>
<path d="M2860 4847 c0 -9 -19 -13 -66 -14 -36 -1 -68 -4 -71 -7 -4 -3 30 -6
74 -6 76 0 81 1 76 20 -6 23 -13 26 -13 7z"/>
<path d="M4614 4848 c-5 -8 -2 -9 10 -5 9 4 34 1 56 -7 22 -7 37 -10 34 -5 -4
7 -68 29 -86 29 -4 0 -10 -5 -14 -12z"/>
<path d="M1660 4840 c0 -5 -31 -8 -71 -7 -39 1 -73 -1 -75 -5 -3 -5 35 -8 85
-8 76 0 89 2 85 15 -7 17 -24 21 -24 5z"/>
<path d="M2697 4718 c-72 -15 -97 -55 -53 -84 14 -9 49 -24 78 -33 29 -9 62
-22 73 -29 l20 -12 -20 -16 c-31 -24 -109 -14 -144 20 l-28 27 -1 -33 c-1 -32
0 -33 41 -34 23 -1 58 -3 77 -3 44 -2 72 4 99 20 54 34 28 69 -73 100 -87 26
-101 36 -84 56 19 23 116 12 139 -15 22 -28 24 -28 24 6 0 23 -4 28 -21 24
-12 -2 -36 0 -55 5 -19 5 -51 6 -72 1z"/>
<path d="M837 4707 c13 -18 8 -168 -6 -176 -7 -4 13 -8 43 -8 l54 0 -4 44 c-3
41 -2 43 24 44 87 2 146 26 140 57 -6 30 -58 46 -161 48 -75 2 -97 0 -90 -9z
m158 -17 c7 -6 12 -19 11 -28 -3 -19 -51 -46 -70 -39 -13 5 -20 63 -10 79 7
10 52 3 69 -12z"/>
<path d="M1158 4705 c3 -5 7 -45 7 -88 1 -61 -3 -80 -15 -87 -9 -6 7 -8 47 -7
35 1 63 2 63 2 0 0 -4 14 -9 31 -5 18 -5 37 0 45 10 16 29 6 95 -46 30 -24 47
-30 90 -31 l53 -1 -66 46 c-64 44 -65 45 -39 52 34 9 56 27 56 45 0 23 -43 42
-110 48 -56 5 -60 4 -30 -5 41 -12 53 -22 57 -47 1 -12 -7 -23 -23 -31 -33
-15 -84 -14 -85 2 -1 6 -2 19 -3 27 -1 8 2 25 6 36 6 20 3 22 -47 21 -34 -1
-51 -5 -47 -12z"/>
<path d="M1618 4711 c-48 -16 -87 -45 -97 -71 -11 -33 9 -74 47 -94 22 -11
125 -32 142 -29 3 1 25 4 50 8 58 8 102 34 119 70 18 37 2 70 -48 99 -38 22
-166 32 -213 17z m152 -23 c11 -12 20 -24 21 -27 6 -34 4 -70 -3 -87 -26 -57
-139 -58 -169 -2 -20 38 -13 90 16 116 36 30 106 31 135 0z"/>
<path d="M1959 4711 c11 -7 14 -28 12 -83 -1 -40 -4 -80 -6 -88 -4 -13 6 -15
55 -16 50 0 57 2 47 14 -17 21 -17 70 -1 76 20 8 60 -10 73 -31 8 -14 10 -8
11 31 0 47 -1 48 -18 33 -10 -10 -32 -17 -49 -17 -28 0 -30 2 -29 38 l1 37 65
-2 c54 -2 68 -6 83 -25 l19 -22 -4 29 -3 30 -135 2 c-81 2 -129 -1 -121 -6z"/>
<path d="M2281 4713 c14 -3 16 -18 15 -89 -1 -56 -5 -87 -14 -93 -7 -4 17 -7
53 -7 50 0 62 2 54 12 -6 7 -9 28 -7 46 3 29 6 33 28 30 14 -1 32 -12 41 -24
16 -21 17 -20 16 30 -1 29 -5 52 -9 52 -5 0 -8 -6 -8 -14 0 -15 -21 -26 -51
-26 -15 0 -19 7 -19 38 l0 37 43 -1 c69 -1 76 -3 97 -24 l20 -20 0 29 0 29
-137 -1 c-76 0 -131 -2 -122 -4z"/>
<path d="M2961 4707 c-13 -6 -29 -20 -35 -29 -14 -23 16 -56 60 -64 19 -3 37
-10 40 -15 3 -5 14 -9 25 -9 34 0 59 -22 48 -42 -18 -34 -117 -21 -157 22
l-20 21 -3 -33 -4 -33 88 -3 c93 -3 149 13 162 46 9 24 -35 56 -98 71 -56 14
-97 36 -97 51 0 5 15 14 33 19 28 8 29 9 7 10 -14 0 -36 -5 -49 -12z"/>
<path d="M3075 4705 c22 -8 45 -21 51 -30 9 -12 13 -12 16 -3 11 29 -7 43 -57
45 l-50 2 40 -14z"/>
<path d="M3246 4621 l1 -96 44 -2 44 -2 -1 87 c0 48 3 92 8 98 5 7 -9 11 -45
11 l-52 0 1 -96z"/>
<path d="M3492 4699 c-59 -23 -85 -59 -71 -97 19 -51 58 -70 165 -79 73 -6
133 9 174 43 59 50 31 111 -64 139 -63 19 -91 19 -48 0 55 -24 70 -101 27
-147 -22 -24 -32 -27 -76 -24 -65 4 -88 30 -85 94 3 49 17 67 66 80 l35 10
-35 1 c-19 0 -59 -9 -88 -20z"/>
<path d="M3835 4713 c33 -8 37 -18 38 -92 1 -57 -3 -74 -17 -84 -15 -11 -11
-13 26 -14 33 -1 39 1 26 8 -15 8 -18 24 -18 80 l0 70 81 -55 c44 -31 83 -56
85 -56 3 0 20 -11 38 -25 18 -14 36 -25 39 -25 4 0 5 34 3 75 -1 44 2 85 9 98
11 21 9 22 -23 24 -29 2 -32 0 -18 -10 16 -12 26 -90 13 -103 -3 -3 -42 20
-87 51 -77 54 -85 58 -148 60 -37 2 -58 1 -47 -2z"/>
<path d="M4343 4658 c-74 -91 -106 -125 -123 -130 -8 -3 7 -5 33 -5 26 0 50 4
53 8 3 5 -1 6 -9 3 -21 -8 -29 10 -13 31 11 15 25 18 77 16 62 -3 93 -19 83
-46 -3 -7 20 -11 63 -11 50 -1 63 1 48 8 -17 8 -48 44 -145 169 -15 19 -18 18
-67 -43z m44 -66 c-15 -2 -38 -2 -52 0 l-25 3 22 33 23 32 30 -32 29 -33 -27
-3z"/>
<path d="M4639 4705 c5 -5 9 -45 9 -87 1 -63 -2 -79 -16 -87 -12 -7 1 -9 45
-8 35 1 63 5 63 10 0 4 -3 7 -8 7 -14 0 -8 160 7 169 8 6 -10 9 -47 8 -41 -1
-58 -5 -53 -12z"/>
<path d="M2546 4571 c-22 -25 -61 -38 -103 -36 -18 1 -33 -1 -33 -5 0 -4 31
-6 70 -6 68 1 70 1 80 30 13 37 8 42 -14 17z"/>
<path d="M4900 4570 c0 -14 -60 -39 -77 -33 -7 3 -13 1 -13 -4 0 -5 21 -9 47
-8 42 1 48 4 54 28 4 15 3 27 -2 27 -5 0 -9 -5 -9 -10z"/>
<path d="M4750 4529 c0 -4 11 -6 25 -6 13 0 22 3 20 8 -6 9 -45 8 -45 -2z"/>
<path d="M948 4523 c7 -3 16 -2 19 1 4 3 -2 6 -13 5 -11 0 -14 -3 -6 -6z"/>
<path d="M831 4454 c-21 -15 -35 -61 -33 -111 3 -78 63 -126 106 -84 16 17 18
23 8 33 -10 10 -14 8 -18 -10 -4 -12 -12 -22 -19 -22 -9 0 -12 23 -11 89 1 96
9 120 26 77 12 -31 32 -26 26 7 -3 12 -5 24 -5 27 -2 11 -62 6 -80 -6z"/>
<path d="M1512 4463 c-10 -4 -10 -8 -1 -19 9 -11 7 -14 -13 -14 -30 0 -64 -23
-71 -49 -2 -11 2 -32 9 -47 13 -23 12 -28 -2 -39 -14 -9 -14 -16 -5 -33 9 -17
9 -22 -1 -22 -9 0 -9 -3 0 -12 15 -15 89 -19 119 -5 35 16 29 44 -12 56 -19 5
-44 7 -55 4 -11 -3 -20 0 -20 6 0 6 15 11 33 11 38 0 50 7 66 38 10 19 10 30
1 53 -7 16 -17 29 -23 29 -7 0 -7 4 1 12 7 7 12 15 12 19 0 10 -23 17 -38 12z
m-2 -97 c0 -25 -4 -48 -10 -51 -11 -7 -12 -5 -15 45 -2 38 1 50 16 50 5 0 9
-20 9 -44z m20 -127 c0 -4 -8 -9 -17 -11 -23 -5 -54 2 -48 11 5 10 65 9 65 0z"/>
<path d="M2007 4457 c-15 -10 -18 -29 -20 -110 -1 -53 0 -97 3 -98 3 -1 17 -2
32 -3 l27 -3 -1 76 c0 42 1 83 3 91 3 9 -4 16 -19 18 -12 2 -20 7 -17 12 3 4
15 6 26 3 16 -4 20 -2 17 8 -6 19 -30 22 -51 6z"/>
<path d="M2180 4458 c-36 -13 -30 -64 16 -132 19 -28 34 -54 34 -58 0 -17 -29
-7 -35 11 -3 11 -12 22 -21 25 -11 4 -14 -1 -10 -22 2 -15 5 -29 5 -32 1 -5
60 -6 82 -1 23 4 13 121 -10 121 -10 0 -43 71 -36 78 3 4 17 -7 31 -23 l24
-30 -2 34 c-3 30 -7 35 -30 36 -15 0 -37 -3 -48 -7z"/>
<path d="M2433 4463 c-24 -9 -13 -24 15 -21 15 2 26 8 25 13 -2 12 -23 16 -40
8z"/>
<path d="M3256 4457 c-11 -8 -18 -26 -18 -42 0 -19 -10 -38 -28 -55 -21 -20
-27 -33 -23 -52 6 -32 34 -59 59 -58 11 0 39 0 64 1 61 0 96 30 49 42 -20 5
-20 7 -4 31 10 14 21 26 26 26 5 0 9 5 9 10 0 6 -11 10 -24 10 -19 0 -25 -6
-28 -27 l-3 -28 -18 33 c-18 33 -18 34 2 51 25 22 26 34 5 55 -19 19 -44 20
-68 3z m52 -31 c3 -12 -1 -17 -10 -14 -7 3 -15 13 -16 22 -3 12 1 17 10 14 7
-3 15 -13 16 -22z m-24 -145 c-7 -8 -44 33 -44 49 0 33 14 29 30 -7 10 -21 16
-40 14 -42z"/>
<path d="M3523 4462 c-27 -3 -33 -7 -33 -28 0 -13 5 -24 10 -24 6 0 10 6 10
14 0 8 5 18 11 21 7 5 10 -26 8 -97 l-2 -103 34 0 c41 0 55 5 40 15 -8 4 -11
37 -8 101 2 64 6 87 11 72 5 -13 12 -23 17 -23 14 0 10 50 -3 51 -7 0 -24 1
-38 2 -14 1 -40 1 -57 -1z"/>
<path d="M3927 4462 c-18 -2 -25 -7 -20 -15 10 -17 11 -159 1 -179 -5 -10 -5
-18 -1 -19 4 -1 21 -2 37 -3 l29 -1 -2 78 c-1 49 2 77 8 77 12 0 13 -2 15 -83
1 -59 11 -74 45 -73 12 1 15 17 14 79 -2 90 -13 111 -55 102 -23 -6 -28 -3
-28 14 0 24 -7 28 -43 23z"/>
<path d="M4747 4462 c-14 -3 -16 -7 -6 -18 9 -11 6 -14 -17 -14 -38 -1 -63
-20 -70 -57 -4 -20 -1 -33 10 -42 15 -13 15 -15 -1 -33 -14 -15 -15 -23 -5
-38 9 -14 8 -20 -1 -23 -7 -3 1 -10 18 -16 36 -15 92 -8 113 13 15 15 15 17 0
32 -9 9 -34 17 -57 18 -53 2 -65 16 -13 16 24 0 47 7 56 16 24 24 24 68 0 95
-11 12 -11 18 -2 27 15 15 0 30 -25 24z m-11 -109 c-2 -15 -4 -32 -5 -36 0 -5
-5 -5 -11 -2 -11 7 -14 88 -3 99 11 10 22 -28 19 -61z m24 -115 c0 -4 -4 -8
-10 -9 -37 -4 -54 -2 -57 8 -2 6 10 10 32 10 19 -1 35 -5 35 -9z"/>
<path d="M1098 4443 c8 -17 8 -150 0 -182 -2 -10 7 -14 32 -15 26 0 34 4 31
14 -2 8 -3 57 -3 108 l0 92 -34 0 c-30 0 -33 -3 -26 -17z"/>
<path d="M1185 4355 c0 -58 2 -105 5 -106 3 0 17 -2 31 -4 l25 -3 0 109 -1
109 -30 0 -30 0 0 -105z"/>
<path d="M4405 4353 l0 -109 30 1 30 1 0 104 0 105 -30 3 -30 3 0 -108z"/>
<path d="M963 4415 c-24 -17 -39 -71 -29 -110 15 -59 77 -79 119 -37 30 30 28
119 -3 144 -27 22 -58 23 -87 3z m52 -88 c0 -34 -5 -62 -10 -62 -11 0 -19 120
-9 144 11 27 20 -12 19 -82z"/>
<path d="M1296 4411 c-10 -11 -20 -36 -23 -56 -10 -78 42 -131 103 -103 27 13
35 30 23 49 -7 11 -10 10 -15 -8 -6 -23 -29 -37 -45 -27 -5 3 -9 21 -9 40 0
33 1 34 39 34 39 0 39 1 34 32 -3 18 -12 38 -21 45 -25 19 -67 16 -86 -6z m60
-26 c-1 -33 -26 -33 -26 0 0 15 6 25 14 25 9 0 13 -10 12 -25z"/>
<path d="M1610 4408 c-11 -12 -20 -27 -21 -32 -7 -68 -4 -82 21 -108 16 -15
35 -25 46 -23 10 2 24 4 31 4 19 1 37 41 24 54 -7 7 -13 2 -20 -16 -14 -37
-38 -34 -44 6 -6 42 -2 47 40 47 35 0 35 1 29 33 -11 57 -67 76 -106 35z m60
-23 c0 -29 -17 -42 -22 -18 -6 25 3 54 13 47 5 -3 9 -16 9 -29z"/>
<path d="M1840 4403 c-18 -23 -21 -37 -17 -76 5 -57 25 -80 67 -80 38 0 59 19
69 64 11 49 -5 98 -35 109 -41 16 -61 12 -84 -17z m61 -5 c5 -67 2 -114 -8
-127 -11 -14 -13 -12 -14 12 -1 32 -1 115 0 122 2 11 21 4 22 -7z"/>
<path d="M2310 4410 c-11 -11 -21 -26 -21 -32 -8 -72 7 -127 34 -129 6 0 20
-2 29 -4 22 -4 52 30 44 50 -3 9 -10 13 -16 10 -6 -4 -8 -10 -6 -14 7 -10 -12
-37 -20 -28 -10 9 -13 147 -3 147 4 0 11 -9 14 -20 8 -26 35 -26 35 0 0 20
-27 40 -54 40 -9 0 -25 -9 -36 -20z"/>
<path d="M2423 4336 l0 -92 31 1 c21 2 30 7 27 16 -2 8 -4 48 -4 90 0 76 -1
76 -27 77 l-28 1 1 -93z"/>
<path d="M2538 4419 c-21 -12 -41 -80 -32 -113 8 -35 39 -59 74 -59 34 0 47 9
52 37 5 29 -19 30 -26 1 -4 -14 -13 -25 -21 -25 -17 0 -17 1 -19 48 -2 31 -1
32 36 32 34 0 37 2 34 23 -3 12 -5 25 -5 29 -1 4 -8 14 -17 22 -17 18 -51 20
-76 5z m50 -34 c0 -25 -17 -47 -19 -26 -1 6 -2 17 -3 24 -3 15 3 27 13 27 5 0
9 -11 9 -25z"/>
<path d="M2655 4422 c-2 -3 -1 -12 4 -21 7 -15 7 -110 0 -141 -3 -11 5 -14 31
-14 24 1 34 5 32 15 -2 8 -5 42 -6 76 -1 46 2 63 11 63 14 0 15 -7 16 -92 0
-32 4 -59 8 -59 5 -1 16 -1 24 -1 30 0 36 2 29 13 -4 7 -7 43 -6 80 1 43 -4
71 -11 76 -13 8 -124 12 -132 5z"/>
<path d="M2844 4409 c-24 -27 -27 -121 -3 -144 24 -24 58 -26 79 -5 24 24 26
40 5 40 -9 0 -15 -9 -15 -21 0 -12 -5 -19 -12 -17 -16 6 -24 148 -8 148 5 0
10 -9 10 -19 0 -10 7 -21 15 -25 15 -5 19 5 15 34 -5 35 -58 40 -86 9z"/>
<path d="M2977 4406 c-58 -62 -9 -179 67 -160 26 6 52 49 36 59 -6 3 -15 -6
-22 -20 -17 -38 -42 -28 -45 18 -3 37 -3 37 36 37 35 0 39 3 37 23 -7 66 -67
89 -109 43z m56 -15 c6 -26 -8 -49 -17 -26 -9 24 -8 45 3 45 5 0 11 -9 14 -19z"/>
<path d="M3650 4410 c-21 -21 -21 -23 -24 -79 -3 -47 30 -84 74 -84 33 0 60
22 60 50 0 19 -27 5 -33 -18 -5 -19 -36 -27 -38 -9 -8 59 -5 65 33 68 33 3 37
6 34 25 -3 12 -5 25 -5 29 -1 4 -8 14 -17 22 -21 22 -60 20 -84 -4z m54 -24
c2 -15 -2 -26 -9 -26 -6 0 -11 10 -9 23 1 12 3 26 3 31 2 18 13 -2 15 -28z"/>
<path d="M3801 4411 c-42 -42 -30 -141 20 -161 25 -11 32 -10 49 5 24 22 27
57 5 49 -8 -4 -13 -9 -11 -13 7 -10 -12 -37 -20 -29 -7 8 -12 116 -6 136 2 6
9 12 14 12 6 0 8 -6 5 -14 -3 -8 1 -20 8 -26 12 -10 16 -9 21 5 18 45 -49 72
-85 36z"/>
<path d="M4077 4338 l2 -91 29 -2 29 -2 -2 72 c-3 75 6 108 20 85 5 -7 8 -44
7 -82 -1 -37 2 -68 6 -69 53 -6 49 -11 47 76 -1 44 -4 86 -8 92 -4 6 -35 11
-69 11 l-63 0 2 -90z"/>
<path d="M4278 4423 c-19 -5 -49 -63 -40 -78 3 -5 5 -20 4 -32 -4 -28 39 -73
64 -68 11 2 22 4 27 4 23 3 47 44 47 82 0 80 -34 110 -102 92z m43 -65 c2 -83
-3 -109 -17 -95 -6 6 -7 26 -5 110 2 57 21 44 22 -15z"/>
<path d="M4515 4405 c-27 -26 -34 -89 -14 -126 16 -31 55 -42 88 -24 34 17 41
33 41 89 0 78 -65 112 -115 61z m55 -70 c0 -43 -4 -75 -10 -75 -6 0 -10 32
-10 75 0 43 4 75 10 75 6 0 10 -32 10 -75z"/>
<path d="M4814 4413 c16 -53 45 -178 41 -182 -3 -2 -11 2 -19 8 -11 9 -16 9
-21 0 -9 -14 15 -31 33 -24 8 3 17 5 22 5 4 0 11 8 15 18 13 33 43 152 38 152
-3 0 0 6 6 13 11 14 5 27 -13 27 -6 0 -11 -18 -12 -40 -2 -69 -23 -70 -27 -2
-2 40 -3 42 -35 42 -27 0 -32 -3 -28 -17z"/>
<path d="M2755 4181 c-256 -160 -598 -283 -890 -322 -102 -13 -397 -18 -465
-8 -25 4 -70 10 -100 14 -30 4 -77 11 -105 17 -27 5 -61 11 -75 14 -49 9 -185
46 -242 65 -32 10 -64 19 -72 19 -15 0 -15 -19 -1 -255 14 -224 12 -211 46
-475 18 -147 23 -182 34 -240 3 -14 7 -43 11 -65 13 -95 106 -480 142 -590
153 -468 362 -825 657 -1121 145 -146 188 -182 325 -276 221 -151 448 -258
729 -342 l84 -25 142 48 c302 103 571 241 750 386 294 238 499 488 669 818
107 208 177 387 272 702 40 129 114 473 129 600 3 22 9 65 14 95 6 30 13 85
16 122 3 37 8 77 10 90 7 42 24 261 31 396 6 118 5 132 -10 132 -9 0 -67 -15
-129 -34 -98 -30 -249 -65 -342 -80 -127 -20 -406 -28 -525 -14 -108 12 -154
19 -170 23 -8 2 -33 6 -55 10 -180 26 -596 193 -763 306 -24 16 -46 29 -50 28
-4 0 -34 -18 -67 -38z m53 -98 c-2 -44 -7 -58 -18 -58 -22 0 -23 -105 -1 -123
14 -11 13 -11 -7 -2 -18 9 -23 8 -28 -5 -4 -9 -13 -14 -20 -11 -8 3 -14 1 -14
-5 0 -6 -7 -6 -20 1 -15 8 -20 8 -20 -1 0 -8 -4 -8 -12 -2 -7 6 -26 13 -43 17
-16 4 -46 17 -65 29 -19 12 -44 22 -56 23 -67 3 -56 15 72 79 71 35 147 75
169 88 61 38 66 36 63 -30z m-1779 -229 c3 -4 -6 -5 -21 -2 -15 3 -25 1 -22
-3 3 -5 1 -9 -4 -9 -5 0 -12 9 -15 19 -4 17 -1 18 26 10 16 -4 32 -11 36 -15z
m781 -67 c0 -7 -7 -22 -15 -35 -10 -13 -16 -46 -17 -82 -1 -33 -5 -60 -8 -60
-4 0 -15 9 -25 20 -27 30 -45 25 -47 -12 0 -18 -2 -37 -3 -43 -2 -5 -3 -20 -4
-33 0 -13 -6 -20 -11 -17 -10 6 -6 46 7 90 5 18 4 19 -12 5 -17 -14 -18 -13
-12 2 4 12 0 19 -14 23 -10 4 -19 11 -19 16 0 5 -3 8 -7 8 -21 -3 -33 2 -33
15 0 8 -9 12 -25 11 -30 -4 -33 11 -5 20 11 3 20 11 20 16 0 5 9 9 21 9 13 0
18 4 13 12 -4 7 -3 8 4 4 8 -5 12 0 12 13 0 16 6 21 26 21 22 0 25 -2 14 -15
-7 -8 -9 -15 -6 -15 4 0 2 -9 -4 -19 -7 -14 -7 -22 0 -26 6 -4 7 -11 4 -17 -4
-7 -2 -8 5 -4 6 4 8 12 5 18 -5 7 -1 9 9 5 12 -4 14 -2 10 11 -3 9 -10 22 -15
28 -16 21 18 38 87 42 31 1 45 -2 45 -11z m-837 -12 c10 -4 12 -16 8 -43 -5
-28 -11 -38 -29 -40 -22 -3 -30 12 -12 23 6 4 8 10 5 15 -3 5 2 15 10 23 11
12 12 17 2 20 -17 7 -2 8 16 2z m1113 -221 c10 -15 10 -25 -2 -53 -8 -19 -16
-32 -19 -29 -2 2 -7 28 -11 57 -7 57 5 66 32 25z m801 -1072 c-1 -10 -6 -22
-10 -29 -4 -6 -2 -15 4 -19 6 -3 15 0 20 7 7 11 9 11 9 1 0 -10 4 -10 16 2 18
19 14 18 84 21 30 2 60 0 65 -4 6 -4 60 -7 122 -6 l112 1 17 -32 c16 -30 16
-33 -6 -73 -13 -22 -27 -41 -32 -41 -4 0 -8 -5 -8 -11 0 -6 -6 -17 -14 -25 -8
-7 -16 -18 -18 -24 -1 -5 -13 -11 -25 -13 -11 -1 -29 -9 -39 -17 -14 -12 -16
-12 -9 -1 6 11 2 13 -19 9 -19 -4 -26 -2 -23 6 3 7 -5 18 -16 26 -21 12 -21
12 -7 -5 14 -17 14 -17 -6 -7 -18 9 -24 8 -35 -5 -10 -12 -10 -15 -1 -9 7 4
12 2 12 -4 0 -6 5 -8 12 -4 7 4 8 3 4 -4 -4 -6 -13 -9 -20 -6 -8 3 -17 0 -22
-7 -4 -7 -3 -10 4 -5 6 3 14 2 17 -4 4 -6 3 -10 -2 -9 -33 6 -42 -2 -33 -25 6
-17 5 -26 -3 -30 -7 -2 -4 -5 7 -5 13 -1 17 -6 13 -21 -3 -11 -1 -23 4 -26 5
-3 7 -10 3 -15 -3 -5 -9 -7 -13 -4 -5 2 -19 -7 -32 -21 -13 -14 -43 -37 -66
-51 -43 -25 -48 -33 -58 -90 -6 -36 -3 -38 27 -22 14 8 23 8 31 0 12 -12 6
-21 -17 -25 -8 -1 -29 -14 -46 -29 -25 -23 -30 -24 -31 -10 -1 33 -1 527 0
610 1 68 4 81 16 77 8 -3 13 -13 12 -22z m478 -72 c3 0 4 4 1 8 -2 4 6 8 19 8
22 0 23 -1 10 -26 -13 -25 -45 -38 -45 -18 0 4 5 8 12 8 8 0 6 5 -3 13 -8 6
-19 19 -24 27 -6 10 -3 9 7 -2 9 -10 19 -18 23 -18z m361 13 c-6 -17 -5 -17 7
-1 9 11 18 14 28 7 18 -11 32 -12 25 -1 -3 5 1 9 9 9 8 0 13 -5 12 -11 -1 -6
3 -10 9 -9 7 1 9 -8 6 -24 -4 -20 -2 -24 9 -18 11 7 12 6 2 -7 -7 -8 -10 -17
-7 -20 3 -3 -3 -5 -13 -4 -10 0 -22 7 -26 14 -4 6 -15 12 -22 12 -8 0 -15 5
-15 11 0 5 -4 8 -9 4 -5 -3 -16 2 -25 11 -9 8 -21 12 -27 8 -8 -4 -9 -3 -5 4
4 7 14 12 22 12 8 0 14 5 14 10 0 6 3 10 6 10 3 0 3 -8 0 -17z m-596 -223 c0
-5 -2 -10 -4 -10 -3 0 -8 5 -11 10 -3 6 -1 10 4 10 6 0 11 -4 11 -10z m164
-135 c14 -66 1 -160 -24 -175 -24 -15 -76 22 -62 44 3 5 -2 7 -10 3 -17 -6
-63 35 -51 46 3 4 1 7 -6 7 -7 0 -10 4 -7 9 3 5 -8 24 -25 42 -17 18 -28 38
-24 47 4 10 0 12 -10 8 -9 -3 -13 -2 -10 4 6 10 33 9 51 -2 6 -4 11 -1 11 7 0
8 -5 15 -10 15 -6 0 -7 3 -4 6 4 4 13 1 21 -5 11 -9 16 -9 22 0 5 8 3 9 -5 4
-10 -6 -11 -3 -2 14 7 11 14 21 17 21 3 0 2 -5 -1 -10 -12 -19 21 -55 52 -58
27 -2 30 1 28 23 -2 14 1 25 6 25 5 0 8 3 8 8 -1 4 -1 12 0 17 3 16 21 -36 35
-100z m40 15 c4 -22 3 -31 -3 -25 -10 10 -15 28 -26 90 l-6 30 14 -30 c7 -16
17 -46 21 -65z m390 -7 c4 -9 1 -20 -6 -24 -13 -8 -30 18 -21 34 7 12 21 8 27
-10z m720 -8 c-4 -8 -8 -15 -10 -15 -2 0 -4 7 -4 15 0 8 4 15 10 15 5 0 7 -7
4 -15z m-1306 -205 c44 -11 48 -16 28 -39 -9 -10 -16 -25 -14 -32 5 -23 -34
-10 -66 20 -21 22 -26 34 -21 50 5 16 12 20 23 16 10 -4 32 -11 50 -15z m-112
-92 c5 4 6 3 2 -2 -4 -5 -3 -15 3 -22 6 -7 12 -25 13 -41 3 -35 25 -104 39
-121 8 -10 7 -16 -4 -23 -23 -14 -39 -10 -39 10 0 25 -28 35 -47 16 -8 -8 -19
-13 -24 -10 -5 4 -9 2 -9 -4 0 -18 -28 -1 -35 22 -12 36 -13 111 -2 132 15 29
36 47 46 40 5 -3 13 -1 16 5 5 8 11 8 19 1 7 -6 17 -7 22 -3z m1223 -80 c-24
-47 -144 -215 -199 -280 -35 -43 -42 3 -7 50 12 17 37 49 54 72 28 37 34 60
23 90 -6 15 -5 37 3 53 6 14 16 17 43 14 19 -3 34 -1 34 3 0 8 21 16 48 19 10
1 10 -4 1 -21z m-1084 -18 c3 -5 2 -10 -4 -10 -5 0 -13 5 -16 10 -3 6 -2 10 4
10 5 0 13 -4 16 -10z m69 -16 c10 -26 7 -44 -9 -44 -10 0 -14 9 -12 30 2 33
11 39 21 14z m-339 -122 c25 -5 34 -13 18 -19 -7 -3 -9 -13 -4 -31 4 -15 6
-33 3 -41 -2 -7 2 -17 9 -22 12 -7 12 -9 0 -9 -10 0 -11 -3 -3 -13 13 -16 -9
-67 -38 -85 -19 -11 -20 -9 -21 30 -3 141 1 238 9 213 4 -11 16 -22 27 -23z
m10 10 c-3 -3 -11 0 -18 7 -9 10 -8 11 6 5 10 -3 15 -9 12 -12z m245 -22 c12
-8 9 -10 -12 -10 -16 0 -28 5 -28 10 0 13 20 13 40 0z m-96 -35 c3 -8 17 -20
31 -27 35 -16 31 -29 -5 -16 -26 9 -50 34 -50 52 0 12 18 5 24 -9z m110 -39
c-5 -22 -2 -26 28 -34 25 -7 29 -11 16 -16 -9 -4 -30 0 -47 8 -28 15 -29 19
-19 41 14 32 30 32 22 1z m160 -2 c25 -15 12 -34 -25 -34 -24 0 -29 4 -29 24
0 25 21 29 54 10z m-33 -231 c-14 -27 -61 -68 -61 -54 0 16 20 54 34 63 22 15
37 9 27 -9z m-407 -11 c2 -4 -2 -16 -10 -27 -13 -18 -14 -18 -14 8 0 25 13 36
24 19z m346 -132 l0 -50 -51 0 -52 0 49 50 c27 28 50 50 51 50 2 0 3 -22 3
-50z m-355 -109 c3 -5 1 -12 -5 -16 -5 -3 -10 1 -10 9 0 18 6 21 15 7z m446
-26 c5 -4 9 -10 9 -14 0 -13 -47 -30 -70 -26 -18 3 -20 2 -10 -10 7 -8 15 -14
18 -13 26 3 40 -4 38 -19 -3 -21 -61 -63 -87 -63 -16 0 -18 6 -13 35 3 19 0
43 -6 55 -8 14 -8 20 0 20 6 0 8 5 5 10 -3 6 -1 10 5 10 6 0 9 4 6 9 -4 5 0
11 6 14 16 5 86 -1 99 -8z m-324 -190 c4 -4 1 -5 -7 -1 -9 5 -8 2 2 -7 18 -14
14 -27 -8 -27 -6 0 -14 11 -16 24 -5 24 12 30 29 11z"/>
<path d="M1637 3759 c-8 -28 -3 -34 11 -16 6 7 7 19 3 26 -6 9 -10 6 -14 -10z"/>
<path d="M3780 2399 c0 -5 5 -7 10 -4 6 3 10 8 10 11 0 2 -4 4 -10 4 -5 0 -10
-5 -10 -11z"/>
<path d="M3796 2373 c-6 -14 -5 -15 5 -6 7 7 10 15 7 18 -3 3 -9 -2 -12 -12z"/>
<path d="M3095 2089 c-4 -6 -5 -12 -2 -15 2 -3 7 2 10 11 7 17 1 20 -8 4z"/>
<path d="M3253 2053 c4 -6 1 -15 -7 -20 -15 -8 -16 -11 -16 -37 0 -8 -8 -17
-17 -19 -16 -4 -16 -5 1 -6 11 -1 16 -6 13 -15 -3 -8 1 -17 9 -20 9 -3 12 -1
9 4 -6 9 8 14 28 11 5 -1 6 3 2 9 -3 5 -2 10 4 10 5 0 9 9 8 20 -1 11 -5 20
-10 20 -5 0 -7 6 -4 14 3 8 -2 20 -11 28 -10 8 -13 9 -9 1z"/>
<path d="M3168 1960 c10 -12 18 -16 21 -9 2 6 -3 15 -10 20 -24 15 -29 10 -11
-11z"/>
<path d="M3215 1920 c3 -5 8 -10 11 -10 2 0 4 5 4 10 0 6 -5 10 -11 10 -5 0
-7 -4 -4 -10z"/>
<path d="M4600 881 c-16 -9 -206 -58 -255 -65 -40 -6 -111 -15 -162 -21 -24
-3 -62 -8 -85 -11 -24 -3 -77 -7 -118 -9 -69 -4 -93 -6 -205 -21 -63 -8 -148
-34 -167 -51 -23 -21 -23 -35 2 -83 11 -22 20 -41 20 -43 0 -3 -21 -8 -47 -13
-27 -4 -50 -8 -53 -9 -3 -1 -30 -5 -60 -9 -30 -5 -62 -10 -70 -11 -110 -20
-210 -25 -440 -26 -196 0 -365 6 -440 17 -19 3 -52 7 -73 9 -57 6 -138 16
-161 21 -12 2 -74 14 -138 26 -125 23 -132 28 -102 73 25 38 15 67 -31 89
-123 58 -231 67 -645 54 -69 -2 -145 0 -170 4 -67 11 -103 19 -111 23 -4 3
-23 7 -42 10 l-36 6 80 -108 c71 -94 79 -109 64 -118 -83 -49 -312 -241 -302
-252 2 -2 57 10 122 27 138 35 204 45 300 43 101 -3 192 -17 308 -50 14 -4 8
-15 -38 -66 -60 -67 -64 -77 -37 -78 9 0 26 -2 37 -5 11 -2 38 -6 60 -9 22 -3
67 -10 100 -15 33 -5 85 -12 115 -15 30 -3 66 -8 80 -10 48 -7 125 -15 182
-20 31 -2 80 -7 110 -10 29 -3 76 -7 103 -9 28 -2 91 -8 140 -13 109 -10 731
-9 870 1 55 4 123 9 150 11 28 2 79 7 115 10 36 4 79 8 95 10 17 1 55 5 85 9
30 4 71 9 90 11 157 20 326 47 334 55 5 5 -10 28 -35 55 -24 26 -45 50 -47 55
-3 9 91 40 178 59 96 21 269 -5 454 -69 69 -23 83 -25 64 -7 -58 56 -194 171
-246 207 l-62 44 27 25 c38 35 54 63 87 146 15 39 36 85 46 103 l19 32 -22 0
c-12 0 -29 -4 -37 -9z"/>
</g>
</svg>
